<?xml version="1.0" encoding="UTF-8"?>
<svg id="Layer_1" data-name="Layer 1" xmlns="http://www.w3.org/2000/svg" viewBox="0 0 48.71 18.71">
  <defs>
    <style>
      .cls-1 {
        fill: #00e700;
      }
    </style>
  </defs>
  <polygon class="cls-1" points="27.51 2.02 23.91 8.04 22.28 2.02 16.52 2.02 18.87 11.09 17.55 17.26 22.76 17.26 23.98 11.5 30.1 2.02 27.51 2.02"/>
  <path class="cls-1" d="M41.04,3.72l.14-.64,6.54-.2-6.45-.2.14-.65h-5.21l-2.42,11.42c-.19.91-.41,1.54-.66,1.88-.25.34-.58.52-1,.52-.22,0-.41-.05-.56-.16s-.27-.23-.35-.38c-.08-.15-.14-.32-.17-.49-.03-.18-.05-.34-.05-.5,0-.26.02-.54.06-.84.04-.3.08-.58.13-.84.05-.26.09-.48.13-.66.04-.18.06-.3.06-.35h-4.51l-.77,3.62c.35.34.7.64,1.06.92.35.28.75.52,1.19.71.44.19.95.34,1.52.44s1.26.16,2.06.16c.69,0,1.41-.05,2.16-.16.75-.1,1.46-.32,2.12-.64.66-.32,1.25-.77,1.76-1.36.51-.58.87-1.35,1.08-2.29l1.92-9,2.24-.16-2.17-.16Z"/>
  <path class="cls-1" d="M14.17,13.69c.06-.19.11-.39.14-.6l3.41-.21-3.34-.21c.02-.21.03-.43.03-.66,0-.7-.1-1.29-.29-1.76-.19-.47-.44-.86-.76-1.15s-.67-.53-1.07-.71c-.4-.18-.8-.32-1.2-.43-.48-.13-.94-.24-1.39-.34-.45-.1-.85-.22-1.2-.36s-.64-.33-.85-.55c-.22-.22-.32-.54-.32-.96,0-.29.05-.56.16-.83.1-.26.25-.5.43-.7.18-.2.4-.36.64-.49.24-.13.5-.19.79-.19.26,0,.46.05.62.16.16.1.28.25.36.43.08.18.14.39.17.62.03.23.05.47.05.71,0,.42-.02.74-.07.98h3.98l.89-3.34c-.42-.35-1.03-.66-1.84-.92-.81-.26-1.77-.4-2.89-.4-.85,0-1.74.09-2.69.28-.94.18-1.81.49-2.6.92-.79.43-1.45,1-1.97,1.69-.52.7-.78,1.56-.78,2.58,0,.69.12,1.25.35,1.69.23.44.52.8.88,1.09.35.29.74.51,1.16.67.42.16.83.3,1.21.41.4.13.79.25,1.16.37.38.12.71.26,1,.43.29.17.52.37.68.61.17.24.25.54.25.89,0,.26-.04.52-.13.78-.09.26-.22.5-.38.72-.17.22-.38.4-.62.54-.25.14-.53.22-.85.22-.29,0-.53-.06-.72-.17-.19-.11-.34-.26-.44-.43-.1-.18-.18-.37-.23-.58s-.07-.41-.07-.6c0-.14,0-.34.02-.59.02-.25.03-.44.05-.59H1.66l-.82,3.29c.24.27.61.51,1.1.72.42.18.99.34,1.72.49s1.67.23,2.82.23,2.19-.1,3.16-.29c.97-.19,1.8-.5,2.51-.94.7-.43,1.26-.99,1.66-1.68.09-.15.16-.31.23-.47l1.43-.2-1.3-.19Z"/>
</svg>