<?xml version="1.0" encoding="UTF-8"?>
<svg id="Layer_1" data-name="Layer 1" xmlns="http://www.w3.org/2000/svg" viewBox="0 0 80 32">
  <defs>
    <style>
      .cls-1 {
        letter-spacing: -.01em;
      }

      .cls-2 {
        letter-spacing: 0em;
      }

      .cls-3 {
        letter-spacing: 0em;
      }

      .cls-4 {
        fill: #f1f1f1;
      }

      .cls-5, .cls-6 {
        fill: #00a000;
      }

      .cls-6 {
        font-family: RacingSansOne-Regular, 'Racing Sans One';
        font-size: 8.97px;
      }

      .cls-7 {
        fill: #00e700;
      }
    </style>
  </defs>
  <path class="cls-4" d="M75.52,14.07c.67,8-42.76,16.11-51.11,16.42-8.35.31-15.66-5.93-16.33-13.93S13.62,1.82,21.97,1.51c8.35-.31,52.87,4.56,53.54,12.56Z"/>
  <path class="cls-7" d="M65.91,14.34c.52,6.18-36.88,12.59-44.06,12.85-7.18.26-13.42-4.53-13.94-10.71s4.88-11.4,12.06-11.67,45.42,3.35,45.94,9.53Z"/>
  <g>
    <text class="cls-6" transform="translate(24.86 17.55) rotate(-.13) scale(1.04 1) skewX(2.41)"><tspan x="0" y="0">B</tspan><tspan class="cls-3" x="5.58" y="0">e</tspan><tspan class="cls-2" x="10.44" y="0">tt</tspan><tspan x="16.84" y="0">e</tspan><tspan class="cls-1" x="21.74" y="0">r</tspan><tspan x="25.96" y="0"> </tspan></text>
    <polygon class="cls-5" points="26.52 12.82 21.84 12.65 26.51 12.33 26.52 12.82 26.52 12.82"/>
    <polygon class="cls-5" points="26.67 15.27 23.69 15.07 26.66 14.77 26.67 15.27 26.67 15.27"/>
    <polygon class="cls-5" points="25.92 16.91 21.24 16.74 25.91 16.41 25.92 16.91 25.92 16.91"/>
    <polygon class="cls-5" points="26.62 14.45 20.24 14.31 26.61 13.95 26.62 14.45 26.62 14.45"/>
  </g>
  <path class="cls-5" d="M16.84,8.26c-5.85.93-6.66,1.69-7.65,7.19-.99-5.51-1.79-6.26-7.65-7.19,5.85-.93,6.66-1.69,7.65-7.19.99,5.51,1.79,6.26,7.65,7.19Z"/>
  <path class="cls-5" d="M19.25,3.88c-2.34.37-2.66.67-3.05,2.87-.4-2.2-.72-2.5-3.05-2.87,2.34-.37,2.66-.67,3.05-2.87.4,2.2.72,2.5,3.05,2.87Z"/>
</svg>