<?xml version="1.0" encoding="UTF-8"?>
<svg id="Layer_1" xmlns="http://www.w3.org/2000/svg" version="1.1" viewBox="0 0 545.6 66.1">
  <!-- Generator: Adobe Illustrator 29.3.0, SVG Export Plug-In . SVG Version: 2.1.0 Build 146)  -->
  <defs>
    <style>
      .st0 {
        fill: #fff;
      }
    </style>
  </defs>
  <g>
    <path class="st0" d="M431.9,60.9c1.7-.6,3.2-1.4,4.7-2.4l24-.7-22.3-.6c.9-.8,1.8-1.6,2.7-2.5.1,0,.2-.3.3-.4l4.7-.3-4.3-.2c1.2-1.4,2.4-3.1,3.4-4.9.9-1.5,1.6-3,2.3-4.7l7.4-.4-7.1-.4c.2-.5.4-1,.6-1.5.1-.4.3-.8.4-1.2l11.8-.3-11.6-.3c.6-1.9,1.1-3.9,1.4-5.9.5-2.7.7-5.4.7-8.1s-.3-5.9-1-8.3c-.7-2.4-1.6-4.5-2.8-6.4-1.9-2.8-4.5-4.9-7.8-6.2-3.3-1.3-7.6-2-12.8-2s-8.3.5-11.6,1.4c-3.3.9-6.3,2.3-9,4.2-4.5,3.1-7.9,7.4-10.3,12.7-2.4,5.4-3.6,11.4-3.6,18.2s.4,7.3,1.1,9.9c.8,2.6,1.8,4.8,3.2,6.5,1.9,2.5,4.5,4.2,7.7,5.3s7.5,1.7,12.9,1.7,6.5-.2,9.3-.7l82-.7-76.6-.7h.2,0ZM416.4,56.6c-1.2,0-2.2-.7-3-2s-1.1-3.7-1.1-7.2.2-4.9.5-7.6c.3-2.8.8-5.5,1.5-8.4.6-2.8,1.4-5.6,2.3-8.2.9-2.7,1.9-5,3-7.1s2.3-3.7,3.6-4.9c1.3-1.2,2.6-1.8,4-1.8s2.2.6,2.8,1.8,1,3.4,1,6.6-.2,4.9-.5,7.8c-.3,2.8-.8,5.7-1.4,8.6s-1.4,5.7-2.3,8.4-1.9,5.1-2.9,7.2c-1.1,2.1-2.2,3.8-3.5,5.1s-2.6,1.9-4,1.9v-.2Z"/>
    <path class="st0" d="M56.8,11.5c-1.2-2.1-2.8-3.6-4.9-4.7-2.1-1.1-4.6-1.8-7.4-2.2-2.9-.4-6.1-.6-9.6-.6h-15.4c-3.4,0-6.4,2.4-7.1,5.7L1.8,59.9c-.3,1.2.7,2.4,1.9,2.4h11.6c3.4,0,6.3-2.4,7.1-5.7l2.8-13.1c0-.3.3-.5.6-.5h4.7c5.1,0,9.4-.6,13-1.8s6.4-2.9,8.7-5c2.2-2.1,3.9-4.6,4.9-7.4s1.5-5.9,1.5-9.1-.6-6.2-1.7-8.2c0,0,0,0-.1,0ZM40.4,22.3c-.4,2.4-1,4.7-1.8,6.9s-1.9,4.1-3.1,5.6c-1.3,1.5-2.8,2.3-4.6,2.3h-3.4c-.4,0-.7-.4-.6-.8l5.5-25.6c0-.3.3-.5.6-.5h3.6c1.8,0,3,.6,3.6,1.7.6,1.1.8,2.5.8,4.2s-.2,3.9-.6,6.2h0Z"/>
    <path class="st0" d="M116.4,26c0-3.1-.3-5.9-1-8.3s-1.6-4.5-2.8-6.4c-1.9-2.8-4.5-4.9-7.8-6.2-3.3-1.3-7.6-2-12.8-2s-8.3.5-11.6,1.4c-3.3.9-6.3,2.3-9,4.2-4.5,3.1-7.9,7.4-10.3,12.7-2.4,5.4-3.6,11.4-3.6,18.2s.4,7.3,1.1,9.9c.8,2.6,1.8,4.8,3.2,6.5,1.9,2.5,4.5,4.2,7.7,5.3s7.5,1.7,12.9,1.7,10.2-.6,13.9-1.9c3.8-1.3,7.1-3.4,10-6.6,1.5-1.7,2.9-3.6,4.2-5.7,1.3-2.2,2.3-4.5,3.2-7,.9-2.5,1.6-5.1,2.1-7.8s.7-5.4.7-8.1h0ZM95.7,25.5c-.3,2.8-.8,5.7-1.4,8.6-.6,2.9-1.4,5.7-2.3,8.4s-1.9,5.1-2.9,7.2c-1.1,2.1-2.2,3.8-3.5,5.1s-2.6,1.9-4,1.9-2.2-.7-3-2-1.1-3.7-1.1-7.2.2-4.9.5-7.6c.3-2.8.8-5.5,1.5-8.4.6-2.8,1.4-5.6,2.3-8.2.9-2.7,1.9-5,3-7.1s2.3-3.7,3.6-4.9c1.3-1.2,2.6-1.8,4-1.8s2.2.6,2.8,1.8,1,3.4,1,6.6-.2,4.9-.5,7.8v-.2Z"/>
    <path class="st0" d="M165.9,6.5c-1.9-1-4.1-1.7-6.6-2s-5.2-.5-8-.5h-18.9c-3.1,0-5.8,2.2-6.4,5.2l-11,51.6c-.2.8.4,1.6,1.3,1.6h12.9c3.1,0,5.8-2.2,6.4-5.2l4.2-19.7c0-.3.3-.5.6-.5s.5.2.6.5l7.6,24.1c.2.5.7.9,1.3.9h9.9c4.6,0,7.8-4.6,6.1-8.9l-6.9-17.9c-.1-.3,0-.7.4-.9,4.3-1.6,7.4-3.8,9.4-6.8,2-3.1,3-6.4,3-10s-.6-5.3-1.7-7.1c-1.1-1.8-2.6-3.2-4.5-4.2h0l.3-.2h0ZM153.9,20.6c-.3,1.7-.8,3.4-1.5,4.9s-1.6,2.8-2.8,3.9c-1.1,1.1-2.5,1.6-4.1,1.6h-3.5c-.4,0-.7-.4-.6-.8l4.3-19.5c0-.3.3-.5.6-.5h3.6c1.8,0,3,.6,3.6,1.7.6,1.1.8,2.5.8,4.1s-.2,2.8-.5,4.5h0Z"/>
    <path class="st0" d="M224.8,5.8v-.3c.2-.8-.4-1.6-1.2-1.6h-42.3c-3,0-5.7,2.1-6.4,5.1v.3c-.3.8.4,1.6,1.2,1.6h12.1c.4,0,.7.4.6.8l-10.4,49c-.2.8.4,1.6,1.3,1.6h12.9c3.1,0,5.8-2.2,6.4-5.2l9.7-45.6c0-.3.3-.5.6-.5h9c3.1,0,5.7-2.1,6.4-5.1h0Z"/>
    <path class="st0" d="M247.1,11.5c0-.3.3-.5.6-.5h13c3.1,0,5.8-2.2,6.4-5.2v-.2c.2-.8-.4-1.6-1.2-1.6h-31.8c-3.1,0-5.8,2.2-6.4,5.2l-11.1,52.4c0,.4.2.8.6.8h13.7c3.1,0,5.8-2.2,6.4-5.2l4.7-21.8c0-.3.3-.5.6-.5h9.8c3.1,0,5.8-2.2,6.4-5.2v-.3c.2-.8-.4-1.6-1.2-1.6h-13.3c-.4,0-.7-.4-.6-.8l3.3-15.5h.1Z"/>
    <path class="st0" d="M321,26c0-3.1-.3-5.9-1-8.3s-1.6-4.5-2.8-6.4c-1.9-2.8-4.5-4.9-7.8-6.2-3.3-1.3-7.6-2-12.8-2s-8.3.5-11.6,1.4c-3.3.9-6.3,2.3-9,4.2-4.5,3.1-7.9,7.4-10.3,12.7-2.4,5.4-3.6,11.4-3.6,18.2s.4,7.3,1.1,9.9c.8,2.6,1.8,4.8,3.2,6.5,1.9,2.5,4.5,4.2,7.7,5.3s7.5,1.7,12.9,1.7,10.2-.6,13.9-1.9c3.8-1.3,7.1-3.4,10-6.6,1.5-1.7,2.9-3.6,4.2-5.7,1.3-2.2,2.3-4.5,3.2-7,.9-2.5,1.6-5.1,2.1-7.8s.7-5.4.7-8.1h-.1ZM300.3,25.5c-.3,2.8-.8,5.7-1.4,8.6-.6,2.9-1.4,5.7-2.3,8.4s-1.9,5.1-2.9,7.2c-1.1,2.1-2.2,3.8-3.5,5.1s-2.6,1.9-4,1.9-2.2-.7-3-2-1.1-3.7-1.1-7.2.2-4.9.5-7.6c.3-2.8.8-5.5,1.5-8.4.6-2.8,1.4-5.6,2.3-8.2.9-2.7,1.9-5,3-7.1s2.3-3.7,3.6-4.9c1.3-1.2,2.6-1.8,4-1.8s2.2.6,2.8,1.8,1,3.4,1,6.6-.2,4.9-.5,7.8h0v-.2Z"/>
    <path class="st0" d="M358,54.6h-16.2c-.4,0-.7-.4-.6-.8l10.3-48.2c.2-.8-.4-1.6-1.3-1.6h-13c-3.1,0-5.8,2.2-6.4,5.2l-11,51.6c-.2.8.4,1.6,1.3,1.6h31.6c3.1,0,5.8-2.2,6.4-5.3l.2-.9c.2-.8-.5-1.6-1.3-1.6h0Z"/>
    <path class="st0" d="M392.1,4h-13c-3.1,0-5.8,2.2-6.4,5.2l-11,51.6c-.2.8.4,1.6,1.3,1.6h12.9c3.1,0,5.8-2.2,6.4-5.2l11-51.6c.2-.8-.4-1.6-1.3-1.6,0,0,.1,0,.1,0Z"/>
  </g>
  <path class="st0" d="M515,54.8c-5.9.2-6.1.4-6.3,6.3-.2-5.9-.4-6.1-6.3-6.3,5.9-.2,6.1-.4,6.3-6.3.2,5.9.4,6.1,6.3,6.3Z"/>
</svg>