<?xml version="1.0" encoding="UTF-8"?>
<svg id="Layer_1" data-name="Layer 1" xmlns="http://www.w3.org/2000/svg" xmlns:xlink="http://www.w3.org/1999/xlink" viewBox="0 0 5025.5 71">
  <defs>
    <style>
      .cls-1 {
        fill: url(#linear-gradient-2);
      }

      .cls-2 {
        font-family: GmarketSansTTFBold, 'Gmarket Sans TTF';
        font-size: 20px;
      }

      .cls-2, .cls-3 {
        fill: #1c1c1b;
      }

      .cls-4 {
        letter-spacing: -.05em;
      }

      .cls-5 {
        fill: url(#linear-gradient-4);
      }

      .cls-6 {
        letter-spacing: -.03em;
      }

      .cls-7 {
        fill: url(#linear-gradient-3);
      }

      .cls-8 {
        letter-spacing: -.03em;
      }

      .cls-9 {
        fill: url(#linear-gradient);
      }

      .cls-10 {
        letter-spacing: -.05em;
      }

      .cls-11 {
        letter-spacing: -.02em;
      }

      .cls-3 {
        stroke: #1c1c1b;
        stroke-miterlimit: 10;
      }
    </style>
    <linearGradient id="linear-gradient" x1="4.36" y1="35.46" x2="1275.68" y2="35.46" gradientUnits="userSpaceOnUse">
      <stop offset="0" stop-color="#00e700"/>
      <stop offset="1" stop-color="#063aa3"/>
    </linearGradient>
    <linearGradient id="linear-gradient-2" x1="1298.44" y1="46.46" x2="2553.81" y2="46.46" gradientTransform="translate(-24.67 -10.91)" xlink:href="#linear-gradient"/>
    <linearGradient id="linear-gradient-3" x1="2527.36" x2="3782.25" xlink:href="#linear-gradient"/>
    <linearGradient id="linear-gradient-4" x1="-1191.92" y1="46.46" x2="47.22" y2="46.46" gradientTransform="translate(4972.28 -10.91)" xlink:href="#linear-gradient"/>
  </defs>
  <g>
    <g>
      <rect class="cls-9" x="4.36" y="5.46" width="1271.32" height="60"/>
      <rect class="cls-1" x="1273.77" y="5.54" width="1255.37" height="60" transform="translate(3802.91 71.09) rotate(180)"/>
    </g>
    <g>
      <text class="cls-2" transform="translate(363.36 40.95)"><tspan class="cls-6" x="0" y="0">C</tspan><tspan class="cls-4" x="17.9" y="0">r</tspan><tspan class="cls-8" x="27.1" y="0">eati</tspan><tspan class="cls-10" x="68.58" y="0">v</tspan><tspan class="cls-11" x="80.62" y="0">e Design &amp; coding </tspan></text>
      <g>
        <path class="cls-3" d="M344.13,36.53c-15.51,8.61-8.61,15.51,0,0h0Z"/>
        <path class="cls-3" d="M344.13,36.32c-8.61-15.51-15.51-8.61,0,0h0Z"/>
        <path class="cls-3" d="M344.33,36.32c15.51-8.61,8.61-15.51,0,0h0Z"/>
        <path class="cls-3" d="M344.31,36.43s-.02,0-.03-.01c.02-.03.03-.06.05-.09-.03.02-.06.03-.09.05,0,0,0-.02-.01-.03,0,0,0,.02-.01.03-.03-.02-.06-.03-.09-.05.02.03.03.06.05.09,0,0-.02,0-.03.01,0,0,.02,0,.02.01-.02.03-.03.06-.05.09.03-.02.06-.03.09-.05,0,0,0,.02.01.03,0,0,0-.02.01-.03.03.02.06.03.09.05-.02-.03-.03-.06-.05-.09,0,0,.02,0,.02-.01Z"/>
        <path class="cls-3" d="M344.33,36.53c8.61,15.51,15.51,8.61,0,0h0Z"/>
      </g>
    </g>
    <g>
      <text class="cls-2" transform="translate(674.36 40.95)"><tspan class="cls-6" x="0" y="0">C</tspan><tspan class="cls-4" x="17.9" y="0">r</tspan><tspan class="cls-8" x="27.1" y="0">eati</tspan><tspan class="cls-10" x="68.58" y="0">v</tspan><tspan class="cls-11" x="80.62" y="0">e Design &amp; coding </tspan></text>
      <g>
        <path class="cls-3" d="M655.13,36.53c-15.51,8.61-8.61,15.51,0,0h0Z"/>
        <path class="cls-3" d="M655.13,36.32c-8.61-15.51-15.51-8.61,0,0h0Z"/>
        <path class="cls-3" d="M655.33,36.32c15.51-8.61,8.61-15.51,0,0h0Z"/>
        <path class="cls-3" d="M655.31,36.43s-.02,0-.03-.01c.02-.03.03-.06.05-.09-.03.02-.06.03-.09.05,0,0,0-.02-.01-.03,0,0,0,.02-.01.03-.03-.02-.06-.03-.09-.05.02.03.03.06.05.09,0,0-.02,0-.03.01,0,0,.02,0,.02.01-.02.03-.03.06-.05.09.03-.02.06-.03.09-.05,0,0,0,.02.01.03,0,0,0-.02.01-.03.03.02.06.03.09.05-.02-.03-.03-.06-.05-.09,0,0,.02,0,.02-.01Z"/>
        <path class="cls-3" d="M655.33,36.53c8.61,15.51,15.51,8.61,0,0h0Z"/>
      </g>
    </g>
    <g>
      <text class="cls-2" transform="translate(985.36 40.95)"><tspan class="cls-6" x="0" y="0">C</tspan><tspan class="cls-4" x="17.9" y="0">r</tspan><tspan class="cls-8" x="27.1" y="0">eati</tspan><tspan class="cls-10" x="68.58" y="0">v</tspan><tspan class="cls-11" x="80.62" y="0">e Design &amp; coding </tspan></text>
      <g>
        <path class="cls-3" d="M966.13,36.53c-15.51,8.61-8.61,15.51,0,0h0Z"/>
        <path class="cls-3" d="M966.13,36.32c-8.61-15.51-15.51-8.61,0,0h0Z"/>
        <path class="cls-3" d="M966.33,36.32c15.51-8.61,8.61-15.51,0,0h0Z"/>
        <path class="cls-3" d="M966.31,36.43s-.02,0-.03-.01c.02-.03.03-.06.05-.09-.03.02-.06.03-.09.05,0,0,0-.02-.01-.03,0,0,0,.02-.01.03-.03-.02-.06-.03-.09-.05.02.03.03.06.05.09,0,0-.02,0-.03.01,0,0,.02,0,.02.01-.02.03-.03.06-.05.09.03-.02.06-.03.09-.05,0,0,0,.02.01.03,0,0,0-.02.01-.03.03.02.06.03.09.05-.02-.03-.03-.06-.05-.09,0,0,.02,0,.02-.01Z"/>
        <path class="cls-3" d="M966.33,36.53c8.61,15.51,15.51,8.61,0,0h0Z"/>
      </g>
    </g>
    <g>
      <text class="cls-2" transform="translate(1296.36 40.95)"><tspan class="cls-6" x="0" y="0">C</tspan><tspan class="cls-4" x="17.9" y="0">r</tspan><tspan class="cls-8" x="27.1" y="0">eati</tspan><tspan class="cls-10" x="68.58" y="0">v</tspan><tspan class="cls-11" x="80.62" y="0">e Design &amp; coding </tspan></text>
      <g>
        <path class="cls-3" d="M1277.13,36.53c-15.51,8.61-8.61,15.51,0,0h0Z"/>
        <path class="cls-3" d="M1277.13,36.32c-8.61-15.51-15.51-8.61,0,0h0Z"/>
        <path class="cls-3" d="M1277.33,36.32c15.51-8.61,8.61-15.51,0,0h0Z"/>
        <path class="cls-3" d="M1277.31,36.43s-.02,0-.03-.01c.02-.03.03-.06.05-.09-.03.02-.06.03-.09.05,0,0,0-.02-.01-.03,0,0,0,.02-.01.03-.03-.02-.06-.03-.09-.05.02.03.03.06.05.09,0,0-.02,0-.03.01,0,0,.02,0,.02.01-.02.03-.03.06-.05.09.03-.02.06-.03.09-.05,0,0,0,.02.01.03,0,0,0-.02.01-.03.03.02.06.03.09.05-.02-.03-.03-.06-.05-.09,0,0,.02,0,.02-.01Z"/>
        <path class="cls-3" d="M1277.33,36.53c8.61,15.51,15.51,8.61,0,0h0Z"/>
      </g>
    </g>
    <g>
      <text class="cls-2" transform="translate(1607.36 40.95)"><tspan class="cls-6" x="0" y="0">C</tspan><tspan class="cls-4" x="17.9" y="0">r</tspan><tspan class="cls-8" x="27.1" y="0">eati</tspan><tspan class="cls-10" x="68.58" y="0">v</tspan><tspan class="cls-11" x="80.62" y="0">e Design &amp; coding </tspan></text>
      <g>
        <path class="cls-3" d="M1588.13,36.53c-15.51,8.61-8.61,15.51,0,0h0Z"/>
        <path class="cls-3" d="M1588.13,36.32c-8.61-15.51-15.51-8.61,0,0h0Z"/>
        <path class="cls-3" d="M1588.33,36.32c15.51-8.61,8.61-15.51,0,0h0Z"/>
        <path class="cls-3" d="M1588.31,36.43s-.02,0-.03-.01c.02-.03.03-.06.05-.09-.03.02-.06.03-.09.05,0,0,0-.02-.01-.03,0,0,0,.02-.01.03-.03-.02-.06-.03-.09-.05.02.03.03.06.05.09,0,0-.02,0-.03.01,0,0,.02,0,.02.01-.02.03-.03.06-.05.09.03-.02.06-.03.09-.05,0,0,0,.02.01.03,0,0,0-.02.01-.03.03.02.06.03.09.05-.02-.03-.03-.06-.05-.09,0,0,.02,0,.02-.01Z"/>
        <path class="cls-3" d="M1588.33,36.53c8.61,15.51,15.51,8.61,0,0h0Z"/>
      </g>
    </g>
    <g>
      <text class="cls-2" transform="translate(1918.36 40.95)"><tspan class="cls-6" x="0" y="0">C</tspan><tspan class="cls-4" x="17.9" y="0">r</tspan><tspan class="cls-8" x="27.1" y="0">eati</tspan><tspan class="cls-10" x="68.58" y="0">v</tspan><tspan class="cls-11" x="80.62" y="0">e Design &amp; coding </tspan></text>
      <g>
        <path class="cls-3" d="M1899.13,36.53c-15.51,8.61-8.61,15.51,0,0h0Z"/>
        <path class="cls-3" d="M1899.13,36.32c-8.61-15.51-15.51-8.61,0,0h0Z"/>
        <path class="cls-3" d="M1899.33,36.32c15.51-8.61,8.61-15.51,0,0h0Z"/>
        <path class="cls-3" d="M1899.31,36.43s-.02,0-.03-.01c.02-.03.03-.06.05-.09-.03.02-.06.03-.09.05,0,0,0-.02-.01-.03,0,0,0,.02-.01.03-.03-.02-.06-.03-.09-.05.02.03.03.06.05.09,0,0-.02,0-.03.01,0,0,.02,0,.02.01-.02.03-.03.06-.05.09.03-.02.06-.03.09-.05,0,0,0,.02.01.03,0,0,0-.02.01-.03.03.02.06.03.09.05-.02-.03-.03-.06-.05-.09,0,0,.02,0,.02-.01Z"/>
        <path class="cls-3" d="M1899.33,36.53c8.61,15.51,15.51,8.61,0,0h0Z"/>
      </g>
    </g>
    <g>
      <text class="cls-2" transform="translate(2229.36 40.95)"><tspan class="cls-6" x="0" y="0">C</tspan><tspan class="cls-4" x="17.9" y="0">r</tspan><tspan class="cls-8" x="27.1" y="0">eati</tspan><tspan class="cls-10" x="68.58" y="0">v</tspan><tspan class="cls-11" x="80.62" y="0">e Design &amp; coding </tspan></text>
      <g>
        <path class="cls-3" d="M2210.13,36.53c-15.51,8.61-8.61,15.51,0,0h0Z"/>
        <path class="cls-3" d="M2210.13,36.32c-8.61-15.51-15.51-8.61,0,0h0Z"/>
        <path class="cls-3" d="M2210.33,36.32c15.51-8.61,8.61-15.51,0,0h0Z"/>
        <path class="cls-3" d="M2210.31,36.43s-.02,0-.03-.01c.02-.03.03-.06.05-.09-.03.02-.06.03-.09.05,0,0,0-.02-.01-.03,0,0,0,.02-.01.03-.03-.02-.06-.03-.09-.05.02.03.03.06.05.09,0,0-.02,0-.03.01,0,0,.02,0,.02.01-.02.03-.03.06-.05.09.03-.02.06-.03.09-.05,0,0,0,.02.01.03,0,0,0-.02.01-.03.03.02.06.03.09.05-.02-.03-.03-.06-.05-.09,0,0,.02,0,.02-.01Z"/>
        <path class="cls-3" d="M2210.33,36.53c8.61,15.51,15.51,8.61,0,0h0Z"/>
      </g>
    </g>
    <g>
      <text class="cls-2" transform="translate(52.36 40.95)"><tspan class="cls-6" x="0" y="0">C</tspan><tspan class="cls-4" x="17.9" y="0">r</tspan><tspan class="cls-8" x="27.1" y="0">eati</tspan><tspan class="cls-10" x="68.58" y="0">v</tspan><tspan class="cls-11" x="80.62" y="0">e Design &amp; coding </tspan></text>
      <g>
        <path class="cls-3" d="M33.13,36.53c-15.51,8.61-8.61,15.51,0,0h0Z"/>
        <path class="cls-3" d="M33.13,36.32c-8.61-15.51-15.51-8.61,0,0h0Z"/>
        <path class="cls-3" d="M33.33,36.32c15.51-8.61,8.61-15.51,0,0h0Z"/>
        <path class="cls-3" d="M33.31,36.43s-.02,0-.03-.01c.02-.03.03-.06.05-.09-.03.02-.06.03-.09.05,0,0,0-.02-.01-.03,0,0,0,.02-.01.03-.03-.02-.06-.03-.09-.05.02.03.03.06.05.09,0,0-.02,0-.03.01,0,0,.02,0,.02.01-.02.03-.03.06-.05.09.03-.02.06-.03.09-.05,0,0,0,.02.01.03,0,0,0-.02.01-.03.03.02.06.03.09.05-.02-.03-.03-.06-.05-.09,0,0,.02,0,.02-.01Z"/>
        <path class="cls-3" d="M33.33,36.53c8.61,15.51,15.51,8.61,0,0h0Z"/>
      </g>
    </g>
  </g>
  <g>
    <rect class="cls-7" x="2527.36" y="5.46" width="1254.89" height="60"/>
    <rect class="cls-5" x="3780.36" y="5.54" width="1239.14" height="60" transform="translate(8799.86 71.09) rotate(180)"/>
  </g>
  <g>
    <text class="cls-2" transform="translate(2853.36 40.95)"><tspan class="cls-6" x="0" y="0">C</tspan><tspan class="cls-4" x="17.9" y="0">r</tspan><tspan class="cls-8" x="27.1" y="0">eati</tspan><tspan class="cls-10" x="68.58" y="0">v</tspan><tspan class="cls-11" x="80.62" y="0">e Design &amp; coding </tspan></text>
    <g>
      <path class="cls-3" d="M2834.13,36.53c-15.51,8.61-8.61,15.51,0,0h0Z"/>
      <path class="cls-3" d="M2834.13,36.32c-8.61-15.51-15.51-8.61,0,0h0Z"/>
      <path class="cls-3" d="M2834.33,36.32c15.51-8.61,8.61-15.51,0,0h0Z"/>
      <path class="cls-3" d="M2834.31,36.43s-.02,0-.03-.01c.02-.03.03-.06.05-.09-.03.02-.06.03-.09.05,0,0,0-.02-.01-.03,0,0,0,.02-.01.03-.03-.02-.06-.03-.09-.05.02.03.03.06.05.09,0,0-.02,0-.03.01,0,0,.02,0,.02.01-.02.03-.03.06-.05.09.03-.02.06-.03.09-.05,0,0,0,.02.01.03,0,0,0-.02.01-.03.03.02.06.03.09.05-.02-.03-.03-.06-.05-.09,0,0,.02,0,.02-.01Z"/>
      <path class="cls-3" d="M2834.33,36.53c8.61,15.51,15.51,8.61,0,0h0Z"/>
    </g>
  </g>
  <g>
    <text class="cls-2" transform="translate(3164.36 40.95)"><tspan class="cls-6" x="0" y="0">C</tspan><tspan class="cls-4" x="17.9" y="0">r</tspan><tspan class="cls-8" x="27.1" y="0">eati</tspan><tspan class="cls-10" x="68.58" y="0">v</tspan><tspan class="cls-11" x="80.62" y="0">e Design &amp; coding </tspan></text>
    <g>
      <path class="cls-3" d="M3145.13,36.53c-15.51,8.61-8.61,15.51,0,0h0Z"/>
      <path class="cls-3" d="M3145.13,36.32c-8.61-15.51-15.51-8.61,0,0h0Z"/>
      <path class="cls-3" d="M3145.33,36.32c15.51-8.61,8.61-15.51,0,0h0Z"/>
      <path class="cls-3" d="M3145.31,36.43s-.02,0-.03-.01c.02-.03.03-.06.05-.09-.03.02-.06.03-.09.05,0,0,0-.02-.01-.03,0,0,0,.02-.01.03-.03-.02-.06-.03-.09-.05.02.03.03.06.05.09,0,0-.02,0-.03.01,0,0,.02,0,.02.01-.02.03-.03.06-.05.09.03-.02.06-.03.09-.05,0,0,0,.02.01.03,0,0,0-.02.01-.03.03.02.06.03.09.05-.02-.03-.03-.06-.05-.09,0,0,.02,0,.02-.01Z"/>
      <path class="cls-3" d="M3145.33,36.53c8.61,15.51,15.51,8.61,0,0h0Z"/>
    </g>
  </g>
  <g>
    <text class="cls-2" transform="translate(3475.36 40.95)"><tspan class="cls-6" x="0" y="0">C</tspan><tspan class="cls-4" x="17.9" y="0">r</tspan><tspan class="cls-8" x="27.1" y="0">eati</tspan><tspan class="cls-10" x="68.58" y="0">v</tspan><tspan class="cls-11" x="80.62" y="0">e Design &amp; coding </tspan></text>
    <g>
      <path class="cls-3" d="M3456.13,36.53c-15.51,8.61-8.61,15.51,0,0h0Z"/>
      <path class="cls-3" d="M3456.13,36.32c-8.61-15.51-15.51-8.61,0,0h0Z"/>
      <path class="cls-3" d="M3456.33,36.32c15.51-8.61,8.61-15.51,0,0h0Z"/>
      <path class="cls-3" d="M3456.31,36.43s-.02,0-.03-.01c.02-.03.03-.06.05-.09-.03.02-.06.03-.09.05,0,0,0-.02-.01-.03,0,0,0,.02-.01.03-.03-.02-.06-.03-.09-.05.02.03.03.06.05.09,0,0-.02,0-.03.01,0,0,.02,0,.02.01-.02.03-.03.06-.05.09.03-.02.06-.03.09-.05,0,0,0,.02.01.03,0,0,0-.02.01-.03.03.02.06.03.09.05-.02-.03-.03-.06-.05-.09,0,0,.02,0,.02-.01Z"/>
      <path class="cls-3" d="M3456.33,36.53c8.61,15.51,15.51,8.61,0,0h0Z"/>
    </g>
  </g>
  <g>
    <text class="cls-2" transform="translate(3786.36 40.95)"><tspan class="cls-6" x="0" y="0">C</tspan><tspan class="cls-4" x="17.9" y="0">r</tspan><tspan class="cls-8" x="27.1" y="0">eati</tspan><tspan class="cls-10" x="68.58" y="0">v</tspan><tspan class="cls-11" x="80.62" y="0">e Design &amp; coding </tspan></text>
    <g>
      <path class="cls-3" d="M3767.13,36.53c-15.51,8.61-8.61,15.51,0,0h0Z"/>
      <path class="cls-3" d="M3767.13,36.32c-8.61-15.51-15.51-8.61,0,0h0Z"/>
      <path class="cls-3" d="M3767.33,36.32c15.51-8.61,8.61-15.51,0,0h0Z"/>
      <path class="cls-3" d="M3767.31,36.43s-.02,0-.03-.01c.02-.03.03-.06.05-.09-.03.02-.06.03-.09.05,0,0,0-.02-.01-.03,0,0,0,.02-.01.03-.03-.02-.06-.03-.09-.05.02.03.03.06.05.09,0,0-.02,0-.03.01,0,0,.02,0,.02.01-.02.03-.03.06-.05.09.03-.02.06-.03.09-.05,0,0,0,.02.01.03,0,0,0-.02.01-.03.03.02.06.03.09.05-.02-.03-.03-.06-.05-.09,0,0,.02,0,.02-.01Z"/>
      <path class="cls-3" d="M3767.33,36.53c8.61,15.51,15.51,8.61,0,0h0Z"/>
    </g>
  </g>
  <g>
    <text class="cls-2" transform="translate(4097.36 40.95)"><tspan class="cls-6" x="0" y="0">C</tspan><tspan class="cls-4" x="17.9" y="0">r</tspan><tspan class="cls-8" x="27.1" y="0">eati</tspan><tspan class="cls-10" x="68.58" y="0">v</tspan><tspan class="cls-11" x="80.62" y="0">e Design &amp; coding </tspan></text>
    <g>
      <path class="cls-3" d="M4078.13,36.53c-15.51,8.61-8.61,15.51,0,0h0Z"/>
      <path class="cls-3" d="M4078.13,36.32c-8.61-15.51-15.51-8.61,0,0h0Z"/>
      <path class="cls-3" d="M4078.33,36.32c15.51-8.61,8.61-15.51,0,0h0Z"/>
      <path class="cls-3" d="M4078.31,36.43s-.02,0-.03-.01c.02-.03.03-.06.05-.09-.03.02-.06.03-.09.05,0,0,0-.02-.01-.03,0,0,0,.02-.01.03-.03-.02-.06-.03-.09-.05.02.03.03.06.05.09,0,0-.02,0-.03.01,0,0,.02,0,.02.01-.02.03-.03.06-.05.09.03-.02.06-.03.09-.05,0,0,0,.02.01.03,0,0,0-.02.01-.03.03.02.06.03.09.05-.02-.03-.03-.06-.05-.09,0,0,.02,0,.02-.01Z"/>
      <path class="cls-3" d="M4078.33,36.53c8.61,15.51,15.51,8.61,0,0h0Z"/>
    </g>
  </g>
  <g>
    <text class="cls-2" transform="translate(4408.36 40.95)"><tspan class="cls-6" x="0" y="0">C</tspan><tspan class="cls-4" x="17.9" y="0">r</tspan><tspan class="cls-8" x="27.1" y="0">eati</tspan><tspan class="cls-10" x="68.58" y="0">v</tspan><tspan class="cls-11" x="80.62" y="0">e Design &amp; coding </tspan></text>
    <g>
      <path class="cls-3" d="M4389.13,36.53c-15.51,8.61-8.61,15.51,0,0h0Z"/>
      <path class="cls-3" d="M4389.13,36.32c-8.61-15.51-15.51-8.61,0,0h0Z"/>
      <path class="cls-3" d="M4389.33,36.32c15.51-8.61,8.61-15.51,0,0h0Z"/>
      <path class="cls-3" d="M4389.31,36.43s-.02,0-.03-.01c.02-.03.03-.06.05-.09-.03.02-.06.03-.09.05,0,0,0-.02-.01-.03,0,0,0,.02-.01.03-.03-.02-.06-.03-.09-.05.02.03.03.06.05.09,0,0-.02,0-.03.01,0,0,.02,0,.02.01-.02.03-.03.06-.05.09.03-.02.06-.03.09-.05,0,0,0,.02.01.03,0,0,0-.02.01-.03.03.02.06.03.09.05-.02-.03-.03-.06-.05-.09,0,0,.02,0,.02-.01Z"/>
      <path class="cls-3" d="M4389.33,36.53c8.61,15.51,15.51,8.61,0,0h0Z"/>
    </g>
  </g>
  <g>
    <text class="cls-2" transform="translate(4719.36 40.95)"><tspan class="cls-6" x="0" y="0">C</tspan><tspan class="cls-4" x="17.9" y="0">r</tspan><tspan class="cls-8" x="27.1" y="0">eati</tspan><tspan class="cls-10" x="68.58" y="0">v</tspan><tspan class="cls-11" x="80.62" y="0">e Design &amp; coding </tspan></text>
    <g>
      <path class="cls-3" d="M4700.13,36.53c-15.51,8.61-8.61,15.51,0,0h0Z"/>
      <path class="cls-3" d="M4700.13,36.32c-8.61-15.51-15.51-8.61,0,0h0Z"/>
      <path class="cls-3" d="M4700.33,36.32c15.51-8.61,8.61-15.51,0,0h0Z"/>
      <path class="cls-3" d="M4700.31,36.43s-.02,0-.03-.01c.02-.03.03-.06.05-.09-.03.02-.06.03-.09.05,0,0,0-.02-.01-.03,0,0,0,.02-.01.03-.03-.02-.06-.03-.09-.05.02.03.03.06.05.09,0,0-.02,0-.03.01,0,0,.02,0,.02.01-.02.03-.03.06-.05.09.03-.02.06-.03.09-.05,0,0,0,.02.01.03,0,0,0-.02.01-.03.03.02.06.03.09.05-.02-.03-.03-.06-.05-.09,0,0,.02,0,.02-.01Z"/>
      <path class="cls-3" d="M4700.33,36.53c8.61,15.51,15.51,8.61,0,0h0Z"/>
    </g>
  </g>
  <g>
    <text class="cls-2" transform="translate(2542.36 40.95)"><tspan class="cls-6" x="0" y="0">C</tspan><tspan class="cls-4" x="17.9" y="0">r</tspan><tspan class="cls-8" x="27.1" y="0">eati</tspan><tspan class="cls-10" x="68.58" y="0">v</tspan><tspan class="cls-11" x="80.62" y="0">e Design &amp; coding </tspan></text>
    <g>
      <path class="cls-3" d="M2523.13,36.53c-15.51,8.61-8.61,15.51,0,0h0Z"/>
      <path class="cls-3" d="M2523.13,36.32c-8.61-15.51-15.51-8.61,0,0h0Z"/>
      <path class="cls-3" d="M2523.33,36.32c15.51-8.61,8.61-15.51,0,0h0Z"/>
      <path class="cls-3" d="M2523.31,36.43s-.02,0-.03-.01c.02-.03.03-.06.05-.09-.03.02-.06.03-.09.05,0,0,0-.02-.01-.03,0,0,0,.02-.01.03-.03-.02-.06-.03-.09-.05.02.03.03.06.05.09,0,0-.02,0-.03.01,0,0,.02,0,.02.01-.02.03-.03.06-.05.09.03-.02.06-.03.09-.05,0,0,0,.02.01.03,0,0,0-.02.01-.03.03.02.06.03.09.05-.02-.03-.03-.06-.05-.09,0,0,.02,0,.02-.01Z"/>
      <path class="cls-3" d="M2523.33,36.53c8.61,15.51,15.51,8.61,0,0h0Z"/>
    </g>
  </g>
</svg>