<?xml version="1.0" encoding="UTF-8"?>
<svg id="Layer_1" xmlns="http://www.w3.org/2000/svg" version="1.1" viewBox="0 0 545.6 66.1">
  <!-- Generator: Adobe Illustrator 29.0.1, SVG Export Plug-In . SVG Version: 2.1.0 Build 192)  -->
  <defs>
    <style>
      .st0 {
        fill: #fff;
      }
    </style>
  </defs>
  <path class="st0" d="M209,34.3c-5.9.2-6.1.4-6.3,6.3-.2-5.9-.4-6.1-6.3-6.3,5.9-.2,6.1-.4,6.3-6.3.2,5.9.4,6.1,6.3,6.3Z"/>
  <g>
    <path class="st0" d="M510.2,60.5c1-.8,1.8-1.8,2.3-2.9l5.7-.7-5.3-.6h0l2.3-10.9,9.2-.7-8.9-.6.7-3.2,26-.7-25.6-.7.7-3.2,18.7-.7-18.4-.7,6.2-28.9c.3-1.2-.7-2.4-1.9-2.4h-.2c-3.4,0-6.3,2.4-7.1,5.7l-7.3,34.1c-.1.7-1.1.7-1.3,0l-8.6-38.3c-.2-.9-1-1.5-1.9-1.5h-14.5c-3.4,0-6.4,2.4-7.1,5.7l-10.7,50.2c-.3,1.2.7,2.4,1.9,2.4h0c3.4,0,6.3-2.4,7.1-5.7l7.2-33.6c.1-.7,1.1-.7,1.3,0l9.2,37.9c.2.9,1,1.5,1.9,1.5h15l26.6-.8-23.1-.7h-.1Z"/>
    <path class="st0" d="M86,3.6h-3.2c-2.7,0-5.1,1.7-6.1,4.2l-11.6,30c-.5,1.3-2.4,1-2.5-.4l-2-32.6c0-.7-.6-1.2-1.3-1.2h-12.5c-2.7,0-5.1,1.7-6.1,4.2l-11.4,29.7c-.5,1.3-2.5,1-2.5-.4l-1.3-32.2c0-.7-.6-1.3-1.3-1.3h-14.1c-3.8,0-6.8,3.2-6.5,7l3.3,50.1c0,.7.6,1.2,1.3,1.2h16.5c2.6,0,5-1.6,6.1-4l9.9-23.7c.5-1.3,2.4-1,2.5.4l1.5,26.1c0,.7.6,1.2,1.3,1.2h14.9c2.7,0,5.1-1.7,6.1-4.2L87.3,5.4c.3-.9-.3-1.8-1.2-1.8h-.1Z"/>
    <path class="st0" d="M111.1,10.6h13.3c3.1,0,5.8-2.2,6.5-5.3h0c.2-.9-.5-1.7-1.3-1.7h-31.6c-3.1,0-5.8,2.2-6.5,5.2l-10.9,51.4c-.2.8.5,1.7,1.3,1.7h31.5c3.2,0,5.9-2.2,6.5-5.4h0c.2-.9-.5-1.7-1.3-1.7h-17l4.2-19.6h10.3c3.1,0,5.8-2.2,6.5-5.2h0c.2-.8-.5-1.7-1.3-1.7h-14l3.8-17.6h0Z"/>
    <path class="st0" d="M174.2,6.1c-1.9-1-4-1.6-6.3-2-2.4-.3-4.7-.5-7.1-.5h-17.7c-3.8,0-7,2.6-7.8,6.3l-10.4,48.8c-.4,1.7.9,3.3,2.6,3.3h24c4.3,0,8.2-.5,11.5-1.4s6.2-2.3,8.5-4,4-3.7,5.2-6,1.7-4.9,1.7-7.6-.3-3.8-.9-5.3c-.6-1.4-1.3-2.6-2.2-3.5s-1.7-1.6-2.7-2.2h0c-.9-.5-1-1.9,0-2.4.6-.4,1.2-.7,1.7-1.1,1.2-.9,2.3-1.8,3.2-2.9s1.6-2.4,2.2-3.8c.5-1.4.8-3,.8-4.8,0-2.8-.6-5-1.7-6.8-1.2-1.7-2.7-3.1-4.5-4.1h0ZM158.2,45.9c-.3,1.7-.9,3.3-1.7,4.8s-1.8,2.8-3,3.9c-1.2,1-2.8,1.6-4.6,1.6h-2c-.9,0-1.5-.8-1.4-1.7l3.9-18.9c.1-.6.7-1.1,1.4-1.1h2.3c2,0,3.4.6,4.3,1.9.9,1.3,1.3,3,1.3,5.1s-.2,2.8-.5,4.5h0ZM162.6,20c-.3,1.4-.8,2.7-1.4,3.9-.6,1.2-1.4,2.2-2.3,3-1,.8-2.1,1.2-3.4,1.2h-2.5c-.9,0-1.5-.8-1.4-1.7l3.3-15.4c.1-.6.7-1.1,1.4-1.1h1.6c1.8,0,3.1.6,3.9,1.9.8,1.3,1.2,2.8,1.2,4.5s-.2,2.3-.5,3.7h0Z"/>
    <path class="st0" d="M283.1,15.5c-1-2.9-2.4-5.2-4.2-7-1.9-1.8-4.2-3-7.1-3.8-2.8-.8-6.2-1.1-10-1.1h-19.4c-3.1,0-5.8,2.2-6.4,5.2l-11,51.6c-.2.8.4,1.6,1.3,1.6h24.7c6.2,0,11.5-1,15.8-3.1s7.7-4.8,10.3-8.1c2.6-3.4,4.5-7.2,5.7-11.5,1.1-4.3,1.7-8.7,1.7-13.1s-.5-7.7-1.4-10.6h0ZM265,20.9c-.2,2.3-.6,5-1,7.9s-1.1,6-1.8,9.1c-.8,3.2-1.7,6-2.8,8.6-1.1,2.6-2.5,4.7-4,6.4s-3.4,2.5-5.4,2.5-3.5-1.9-3.1-3.9l8.5-39.3c.3-1.5,1.6-2.5,3.1-2.5h1.8c1.9,0,3.2.5,4,1.6s1.1,2.6,1.1,4.5-.1,2.6-.3,5h-.1Z"/>
    <path class="st0" d="M324.3,28.3h-14l3.8-17.6h13.3c3.1,0,5.8-2.2,6.5-5.3h0c.2-.9-.5-1.7-1.3-1.7h-31.6c-3.1,0-5.8,2.2-6.5,5.2l-10.9,51.4c-.2.8.5,1.7,1.3,1.7h31.5c3.2,0,5.9-2.2,6.5-5.4h0c.2-.9-.5-1.7-1.3-1.7h-17l4.2-19.6h10.3c3.1,0,5.8-2.2,6.5-5.2h0c.2-.8-.5-1.7-1.3-1.7h0Z"/>
    <path class="st0" d="M374,30.6c-1.2-1.1-2.6-2-4.1-2.7s-3.1-1.2-4.6-1.7c-1.8-.5-3.6-.9-5.3-1.3-1.7-.4-3.2-.8-4.6-1.4-1.3-.6-2.4-1.3-3.3-2.1-.8-.9-1.2-2.1-1.2-3.7s.2-2.2.6-3.2.9-1.9,1.7-2.7c.7-.8,1.5-1.4,2.4-1.9s1.9-.7,3-.7,1.8.2,2.4.6c.6.4,1.1,1,1.4,1.7s.5,1.5.6,2.4.2,1.8.2,2.7v2.3c0,.8.5,1.4,1.3,1.4h8.7c3,0,5.6-2,6.3-4.9l1.9-7.1c.1-.5,0-1.1-.5-1.4-1.6-1.1-3.7-2.1-6.3-3-3.1-1-6.8-1.5-11.1-1.5s-6.7.4-10.3,1.1c-3.6.7-6.9,1.9-10,3.5-3,1.7-5.5,3.8-7.5,6.5s-3,6-3,9.9.4,4.8,1.3,6.5,2,3.1,3.4,4.2c1.3,1.1,2.8,2,4.5,2.6,1.6.6,3.2,1.1,4.6,1.6,1.5.5,3,1,4.5,1.4,1.4.5,2.7,1,3.8,1.7,1.1.6,2,1.4,2.6,2.3s1,2.1,1,3.4-.2,2-.5,3-.8,1.9-1.5,2.8c-.6.8-1.4,1.5-2.4,2.1s-2,.8-3.3.8-2-.2-2.8-.6c-.7-.4-1.3-1-1.7-1.7-.4-.7-.7-1.4-.9-2.2-.2-.8-.3-1.6-.3-2.3v-3.1c0-.8-.5-1.4-1.3-1.4h-9.6c-3,0-5.6,2.1-6.4,5l-1.7,6.9c-.1.5,0,1,.4,1.3.9.8,2.1,1.5,3.6,2.2,1.6.7,3.8,1.3,6.6,1.9,2.8.6,6.4.9,10.8.9s8.4-.4,12.1-1.1c3.7-.7,6.9-1.9,9.6-3.6,2.7-1.7,4.8-3.8,6.3-6.4,1.5-2.6,2.3-5.9,2.3-9.7s-.4-4.9-1.1-6.8c-.7-1.8-1.7-3.3-2.9-4.4h.3Z"/>
    <path class="st0" d="M409.1,3.6h-13c-3.1,0-5.8,2.2-6.4,5.2l-11,51.6c-.2.8.4,1.6,1.3,1.6h12.9c3.1,0,5.8-2.2,6.4-5.2l11-51.6c.2-.8-.4-1.6-1.3-1.6h.1Z"/>
    <path class="st0" d="M460.8,35.3h-16.9c-3.1,0-5.7,2.1-6.4,5.1-.1.5.3,1,.8,1h6.7c-1,5.1-2.4,8.8-4.3,11s-3.9,3.3-5.9,3.3-2.2-.3-2.8-1c-.6-.6-1.1-1.4-1.5-2.3-.3-.9-.5-1.8-.6-2.7v-2.3c0-2,.1-4.4.4-7.1.3-2.7.7-5.5,1.2-8.4.5-2.8,1.2-5.7,1.9-8.4.8-2.8,1.7-5.2,2.7-7.4,1-2.2,2.2-3.9,3.5-5.2s2.8-2,4.4-2,1.6.2,2.1.6c.5.4.9.9,1.1,1.5s.4,1.2.5,1.9v4.3c0,1-.1,2-.2,3,0,1-.2,2-.3,2.9,0,.3,0,.6-.1.9,0,.8.5,1.5,1.3,1.5h8.7c3.1,0,5.8-2.2,6.4-5.3l2.2-11.5c.1-.6-.2-1.2-.8-1.5-2.7-1.1-5.6-2.1-8.6-3.1-3.4-1-7.3-1.6-11.9-1.6s-11,1-15.4,2.8c-4.4,1.9-8.1,4.5-11,7.8s-5.1,7.1-6.6,11.3c-1.5,4.3-2.2,8.8-2.2,13.6s.6,8.2,1.7,11.3c1.2,3.1,2.7,5.7,4.6,7.6s4.1,3.3,6.6,4.2,5.1,1.3,7.8,1.3,6.3-.6,8.5-1.9c2.2-1.3,4.1-2.8,5.7-4.7h.4l1.5,4.9c.2.6.7.9,1.3.9h4.5c3.1,0,5.8-2.2,6.4-5.3l4-19.8c.2-.8-.5-1.6-1.3-1.6h0v.4Z"/>
  </g>
</svg>