<?xml version="1.0" encoding="UTF-8"?>
<svg id="Layer_1" data-name="Layer 1" xmlns="http://www.w3.org/2000/svg" viewBox="0 0 502 66.1">
  <defs>
    <style>
      .cls-1 {
        fill: #fff;
      }
    </style>
  </defs>
  <path class="cls-1" d="M75.03,6.71c-2.08-1.1-4.57-1.84-7.45-2.21-2.88-.37-6.07-.55-9.56-.55h-16.48s-.09,0-.09,0h0c-.18,0-.36,0-.53.03l-11.47.55,8.77.42c-.5.34-.94.75-1.31,1.23l-2.28.08,2.16.07c-.46.64-.8,1.38-.98,2.19l-10.85,51.04c-.05.21-.06.42-.04.63l-5.07.19,5.12.19c.07.31.21.6.39.85l-16.37.44,18.05.49c.05,0,.11,0,.16,0h12.36c2.72,0,5.06-1.9,5.63-4.55l3.16-14.76h5.24c5.09,0,9.41-.61,12.96-1.84,3.55-1.23,6.45-2.9,8.69-5.01,2.24-2.11,3.86-4.6,4.87-7.45,1.01-2.85,1.52-5.87,1.52-9.06,0-3.43-.58-6.17-1.75-8.23-1.17-2.05-2.79-3.63-4.87-4.73ZM63.44,22.34c-.37,2.39-.97,4.69-1.79,6.9-.83,2.21-1.87,4.08-3.13,5.61-1.26,1.53-2.8,2.3-4.64,2.3h-4.23l5.79-26.94h4.14c1.84,0,3.03.57,3.59,1.7.55,1.13.83,2.53.83,4.18,0,1.78-.18,3.86-.55,6.25Z"/>
  <path class="cls-1" d="M137.92,11.31c-1.9-2.82-4.49-4.9-7.77-6.25-3.28-1.35-7.56-2.02-12.83-2.02-4.41,0-8.28.46-11.58,1.38-3.31.92-6.31,2.33-9.01,4.23-4.47,3.13-7.92,7.37-10.34,12.73-2.42,5.36-3.63,11.45-3.63,18.25,0,3.98.38,7.29,1.15,9.93.77,2.64,1.82,4.81,3.17,6.53,1.9,2.45,4.47,4.23,7.72,5.33,3.25,1.1,7.54,1.65,12.87,1.65s10.16-.63,13.93-1.88c3.77-1.26,7.09-3.45,9.98-6.57,1.53-1.66,2.93-3.57,4.18-5.75,1.26-2.18,2.33-4.51,3.22-6.99.89-2.48,1.58-5.07,2.07-7.77.49-2.7.74-5.39.74-8.09,0-3.13-.34-5.88-1.01-8.27-.67-2.39-1.62-4.54-2.85-6.44ZM121.05,25.51c-.34,2.85-.81,5.72-1.42,8.6-.61,2.88-1.37,5.67-2.25,8.37-.89,2.7-1.87,5.1-2.94,7.22-1.07,2.11-2.24,3.8-3.49,5.06-1.26,1.26-2.59,1.88-4,1.88-1.23,0-2.22-.66-2.99-1.98-.77-1.32-1.15-3.72-1.15-7.22,0-2.33.17-4.87.51-7.63.34-2.76.83-5.55,1.47-8.37.64-2.82,1.41-5.56,2.3-8.23.89-2.67,1.9-5.03,3.03-7.08,1.13-2.05,2.34-3.69,3.63-4.92,1.29-1.23,2.63-1.84,4.05-1.84,1.22,0,2.16.6,2.8,1.79.64,1.2.97,3.39.97,6.57,0,2.33-.17,4.92-.51,7.77Z"/>
  <path class="cls-1" d="M193.68,6.48c-1.87-1.01-4.06-1.69-6.57-2.02-2.51-.34-5.18-.51-8-.51h-19.52c-2.72,0-5.07,1.9-5.63,4.56l-10.85,51.04c-.3,1.43.79,2.78,2.25,2.78h12.35c2.72,0,5.07-1.9,5.63-4.56l4.45-20.91h1.01l7.58,23.86c.3.96,1.19,1.61,2.2,1.61h10.41c4.05,0,6.83-4.07,5.37-7.84l-7.62-19.65c4.66-1.59,8-3.92,10.02-6.99,2.02-3.06,3.03-6.4,3.03-10.02,0-2.94-.55-5.32-1.66-7.13-1.1-1.81-2.59-3.22-4.46-4.23ZM181.68,20.55c-.31,1.75-.81,3.39-1.52,4.92-.71,1.53-1.63,2.84-2.76,3.91-1.13,1.07-2.5,1.61-4.09,1.61h-4.32l4.6-20.78h4.14c1.84,0,3.03.57,3.59,1.7.55,1.13.83,2.5.83,4.09,0,1.29-.15,2.8-.46,4.55Z"/>
  <path class="cls-1" d="M254.77,6.44c.29-1.28-.68-2.49-1.99-2.49h-42.09c-2.67,0-4.99,1.83-5.6,4.43-.31,1.3.68,2.56,2.02,2.56h11.99l-10.35,48.61c-.31,1.43.79,2.78,2.25,2.78h12.35c2.72,0,5.07-1.9,5.63-4.56l9.97-46.84h10.19c2.7,0,5.03-1.87,5.62-4.5Z"/>
  <path class="cls-1" d="M294.15,10.94c2.51,0,4.67-1.76,5.19-4.21.3-1.43-.79-2.78-2.25-2.78h-31.21c-2.72,0-5.07,1.9-5.63,4.56l-10.85,51.04c-.3,1.43.79,2.78,2.25,2.78h12.36c2.72,0,5.06-1.9,5.63-4.55l4.91-22.94h11.32c2.56,0,4.77-1.8,5.29-4.31h0c.3-1.43-.79-2.77-2.26-2.77h-12.89l3.58-16.83h14.55Z"/>
  <path class="cls-1" d="M351.87,11.31c-1.9-2.82-4.49-4.9-7.77-6.25-3.28-1.35-7.56-2.02-12.83-2.02-4.41,0-8.28.46-11.58,1.38-3.31.92-6.31,2.33-9.01,4.23-4.47,3.13-7.92,7.37-10.34,12.73-2.42,5.36-3.63,11.45-3.63,18.25,0,3.98.38,7.29,1.15,9.93.77,2.64,1.82,4.81,3.17,6.53,1.9,2.45,4.47,4.23,7.72,5.33,3.25,1.1,7.54,1.65,12.87,1.65s10.16-.63,13.93-1.88c3.77-1.26,7.09-3.45,9.98-6.57,1.53-1.66,2.93-3.57,4.18-5.75,1.26-2.18,2.33-4.51,3.22-6.99.89-2.48,1.58-5.07,2.07-7.77.49-2.7.74-5.39.74-8.09,0-3.13-.34-5.88-1.01-8.27-.67-2.39-1.63-4.54-2.85-6.44ZM335,25.51c-.34,2.85-.81,5.72-1.42,8.6-.61,2.88-1.37,5.67-2.25,8.37-.89,2.7-1.87,5.1-2.94,7.22-1.07,2.11-2.24,3.8-3.49,5.06-1.26,1.26-2.59,1.88-4,1.88-1.23,0-2.22-.66-2.99-1.98-.77-1.32-1.15-3.72-1.15-7.22,0-2.33.17-4.87.51-7.63.34-2.76.83-5.55,1.47-8.37.64-2.82,1.41-5.56,2.3-8.23.89-2.67,1.9-5.03,3.03-7.08,1.13-2.05,2.34-3.69,3.63-4.92,1.29-1.23,2.63-1.84,4.05-1.84,1.22,0,2.16.6,2.8,1.79.64,1.2.97,3.39.97,6.57,0,2.33-.17,4.92-.51,7.77Z"/>
  <path class="cls-1" d="M393.83,54.61h-15.85l10.25-47.87c.31-1.43-.79-2.79-2.25-2.79h-12.44c-2.72,0-5.07,1.9-5.63,4.56l-10.85,51.04c-.3,1.43.79,2.78,2.25,2.78h31.06c2.74,0,5.1-1.93,5.64-4.62l.07-.35c.29-1.43-.8-2.76-2.26-2.76Z"/>
  <path class="cls-1" d="M430.3,3.95h-12.44c-2.72,0-5.07,1.9-5.63,4.56l-10.85,51.04c-.3,1.43.79,2.78,2.25,2.78h12.36c2.72,0,5.06-1.9,5.63-4.55l10.93-51.05c.31-1.43-.79-2.79-2.25-2.79Z"/>
  <path class="cls-1" d="M491.99,17.74c-.67-2.39-1.63-4.54-2.85-6.44-1.9-2.82-4.49-4.9-7.77-6.25-3.28-1.35-7.56-2.02-12.83-2.02-4.41,0-8.28.46-11.58,1.38-3.31.92-6.31,2.33-9.01,4.23-4.47,3.13-7.92,7.37-10.34,12.73-2.42,5.36-3.63,11.45-3.63,18.25,0,3.98.38,7.29,1.15,9.93.77,2.64,1.82,4.81,3.17,6.53,1.64,2.11,3.78,3.72,6.41,4.83l-7.29.23,8.61.27c.49.16,1,.31,1.54.45l-19.06.42,25.08.56c1.64.14,3.4.21,5.31.21,5.52,0,10.16-.63,13.93-1.88,3.77-1.26,7.09-3.45,9.98-6.57,1.53-1.66,2.93-3.57,4.18-5.75,1.26-2.18,2.33-4.51,3.22-6.99.89-2.48,1.58-5.07,2.07-7.77.49-2.7.74-5.39.74-8.09,0-3.13-.34-5.88-1.01-8.27ZM472.27,25.51c-.34,2.85-.81,5.72-1.42,8.6-.61,2.88-1.37,5.67-2.25,8.37-.89,2.7-1.87,5.1-2.94,7.22-1.07,2.11-2.24,3.8-3.49,5.06-1.26,1.26-2.59,1.88-4,1.88-1.23,0-2.22-.66-2.99-1.98-.77-1.32-1.15-3.72-1.15-7.22,0-2.33.17-4.87.51-7.63.34-2.76.83-5.55,1.47-8.37.64-2.82,1.41-5.56,2.3-8.23.89-2.67,1.9-5.03,3.03-7.08,1.13-2.05,2.34-3.69,3.63-4.92,1.29-1.23,2.63-1.84,4.05-1.84,1.22,0,2.16.6,2.8,1.79.64,1.2.97,3.39.97,6.57,0,2.33-.17,4.92-.51,7.77Z"/>
</svg>