<?xml version="1.0" encoding="UTF-8"?>
<svg id="Layer_1" data-name="Layer 1" xmlns="http://www.w3.org/2000/svg" viewBox="0 0 207 12">
  <defs>
    <style>
      .cls-1 {
        fill: #fff;
      }
    </style>
  </defs>
  <path class="cls-1" d="M103.5,12c-1.02-4.16-1.84-4.98-6-6,4.16-1.02,4.98-1.84,6-6,1.02,4.16,1.84,4.98,6,6-4.16,1.02-4.98,1.84-6,6Z"/>
  <g>
    <path class="cls-1" d="M89.26,8.28c-.36-1.53-.65-1.84-2.11-2.21,1.46-.37,1.75-.68,2.11-2.21.36,1.53.65,1.84,2.11,2.21-1.46.37-1.75.68-2.11,2.21Z"/>
    <path class="cls-1" d="M81.42,8.28c-.36-1.53-.65-1.84-2.11-2.21,1.46-.37,1.75-.68,2.11-2.21.36,1.53.65,1.84,2.11,2.21-1.46.37-1.75.68-2.11,2.21Z"/>
    <path class="cls-1" d="M73.59,8.28c-.36-1.53-.65-1.84-2.11-2.21,1.46-.37,1.75-.68,2.11-2.21.36,1.53.65,1.84,2.11,2.21-1.46.37-1.75.68-2.11,2.21Z"/>
    <path class="cls-1" d="M65.75,8.28c-.36-1.53-.65-1.84-2.11-2.21,1.46-.37,1.75-.68,2.11-2.21.36,1.53.65,1.84,2.11,2.21-1.46.37-1.75.68-2.11,2.21Z"/>
    <path class="cls-1" d="M57.92,8.28c-.36-1.53-.65-1.84-2.11-2.21,1.46-.37,1.75-.68,2.11-2.21.36,1.53.65,1.84,2.11,2.21-1.46.37-1.75.68-2.11,2.21Z"/>
    <path class="cls-1" d="M50.09,8.28c-.36-1.53-.65-1.84-2.11-2.21,1.46-.37,1.75-.68,2.11-2.21.36,1.53.65,1.84,2.11,2.21-1.46.37-1.75.68-2.11,2.21Z"/>
    <path class="cls-1" d="M42.25,8.28c-.36-1.53-.65-1.84-2.11-2.21,1.46-.37,1.75-.68,2.11-2.21.36,1.53.65,1.84,2.11,2.21-1.46.37-1.75.68-2.11,2.21Z"/>
    <path class="cls-1" d="M34.42,8.28c-.36-1.53-.65-1.84-2.11-2.21,1.46-.37,1.75-.68,2.11-2.21.36,1.53.65,1.84,2.11,2.21-1.46.37-1.75.68-2.11,2.21Z"/>
    <path class="cls-1" d="M26.58,8.28c-.36-1.53-.65-1.84-2.11-2.21,1.46-.37,1.75-.68,2.11-2.21.36,1.53.65,1.84,2.11,2.21-1.46.37-1.75.68-2.11,2.21Z"/>
    <path class="cls-1" d="M18.75,8.28c-.36-1.53-.65-1.84-2.11-2.21,1.46-.37,1.75-.68,2.11-2.21.36,1.53.65,1.84,2.11,2.21-1.46.37-1.75.68-2.11,2.21Z"/>
    <path class="cls-1" d="M10.91,8.28c-.36-1.53-.65-1.84-2.11-2.21,1.46-.37,1.75-.68,2.11-2.21.36,1.53.65,1.84,2.11,2.21-1.46.37-1.75.68-2.11,2.21Z"/>
    <path class="cls-1" d="M3.08,8.28c-.36-1.53-.65-1.84-2.11-2.21,1.46-.37,1.75-.68,2.11-2.21.36,1.53.65,1.84,2.11,2.21-1.46.37-1.75.68-2.11,2.21Z"/>
  </g>
  <g>
    <path class="cls-1" d="M203.92,8.28c-.36-1.53-.65-1.84-2.11-2.21,1.46-.37,1.75-.68,2.11-2.21.36,1.53.65,1.84,2.11,2.21-1.46.37-1.75.68-2.11,2.21Z"/>
    <path class="cls-1" d="M196.09,8.28c-.36-1.53-.65-1.84-2.11-2.21,1.46-.37,1.75-.68,2.11-2.21.36,1.53.65,1.84,2.11,2.21-1.46.37-1.75.68-2.11,2.21Z"/>
    <path class="cls-1" d="M188.25,8.28c-.36-1.53-.65-1.84-2.11-2.21,1.46-.37,1.75-.68,2.11-2.21.36,1.53.65,1.84,2.11,2.21-1.46.37-1.75.68-2.11,2.21Z"/>
    <path class="cls-1" d="M180.42,8.28c-.36-1.53-.65-1.84-2.11-2.21,1.46-.37,1.75-.68,2.11-2.21.36,1.53.65,1.84,2.11,2.21-1.46.37-1.75.68-2.11,2.21Z"/>
    <path class="cls-1" d="M172.58,8.28c-.36-1.53-.65-1.84-2.11-2.21,1.46-.37,1.75-.68,2.11-2.21.36,1.53.65,1.84,2.11,2.21-1.46.37-1.75.68-2.11,2.21Z"/>
    <path class="cls-1" d="M164.75,8.28c-.36-1.53-.65-1.84-2.11-2.21,1.46-.37,1.75-.68,2.11-2.21.36,1.53.65,1.84,2.11,2.21-1.46.37-1.75.68-2.11,2.21Z"/>
    <path class="cls-1" d="M156.91,8.28c-.36-1.53-.65-1.84-2.11-2.21,1.46-.37,1.75-.68,2.11-2.21.36,1.53.65,1.84,2.11,2.21-1.46.37-1.75.68-2.11,2.21Z"/>
    <path class="cls-1" d="M149.08,8.28c-.36-1.53-.65-1.84-2.11-2.21,1.46-.37,1.75-.68,2.11-2.21.36,1.53.65,1.84,2.11,2.21-1.46.37-1.75.68-2.11,2.21Z"/>
    <path class="cls-1" d="M141.25,8.28c-.36-1.53-.65-1.84-2.11-2.21,1.46-.37,1.75-.68,2.11-2.21.36,1.53.65,1.84,2.11,2.21-1.46.37-1.75.68-2.11,2.21Z"/>
    <path class="cls-1" d="M133.41,8.28c-.36-1.53-.65-1.84-2.11-2.21,1.46-.37,1.75-.68,2.11-2.21.36,1.53.65,1.84,2.11,2.21-1.46.37-1.75.68-2.11,2.21Z"/>
    <path class="cls-1" d="M125.58,8.28c-.36-1.53-.65-1.84-2.11-2.21,1.46-.37,1.75-.68,2.11-2.21.36,1.53.65,1.84,2.11,2.21-1.46.37-1.75.68-2.11,2.21Z"/>
    <path class="cls-1" d="M117.74,8.28c-.36-1.53-.65-1.84-2.11-2.21,1.46-.37,1.75-.68,2.11-2.21.36,1.53.65,1.84,2.11,2.21-1.46.37-1.75.68-2.11,2.21Z"/>
  </g>
</svg>