<svg width="1769" height="363" viewBox="0 0 1769 363" fill="none" xmlns="http://www.w3.org/2000/svg">
<path fill-rule="evenodd" clip-rule="evenodd" d="M1769 244.413V181.609C1769 168.354 1758.25 157.609 1745 157.609H1672C1658.75 157.609 1648 146.864 1648 133.609V94.8043C1648 81.5495 1637.25 70.8043 1624 70.8043H1551C1537.75 70.8043 1527 60.0592 1527 46.8044V24C1527 10.7452 1516.25 0 1503 0H24C10.7452 0 0 10.7452 0 24V165.391C0 178.646 10.7452 189.391 24 189.391H92C105.255 189.391 116 200.136 116 213.391V252.196C116 265.45 126.745 276.196 140 276.196H213C226.255 276.196 237 286.941 237 300.196V339C237 352.255 247.745 363 261 363H358L1745 363C1758.25 363 1769 352.255 1769 339V244.413Z" fill="#00E700"/>
</svg>
