<svg width="969" height="146" viewBox="0 0 969 146" fill="none" xmlns="http://www.w3.org/2000/svg">
<path d="M864 0.826172H967.04V33.6656H894.208V55.1456H965.376V88.1916H894.208V111.943H968.448V145.609H864V0.826172Z" fill="#1C1C1B"/>
<path d="M756.25 1.23926H786.714V109.878H854.682V145.816H756.25V1.23926Z" fill="#1C1C1B"/>
<path d="M740.837 1.4458V145.609H710.373V1.4458H740.837Z" fill="#1C1C1B"/>
<path d="M598.248 1.4458H698.856V34.0787H628.584V55.5587H697.192V88.3981H628.584V145.609H598.248V1.4458Z" fill="#1C1C1B"/>
<path d="M586.187 57.624C586.571 61.5482 586.699 65.4724 586.699 69.6032V75.3862C586.699 79.3105 586.571 83.2347 586.187 86.9523C585.931 90.8766 585.163 95.2138 584.139 99.9642C582.987 104.921 581.579 109.258 579.915 113.389C578.123 117.52 575.691 121.651 572.491 125.781C569.291 129.912 565.707 133.217 561.483 136.108C557.387 139 552.139 141.272 545.867 143.131C539.595 144.783 532.683 145.609 525.131 145.609H310.731C303.051 145.609 296.139 144.783 289.867 143.131C283.595 141.272 278.347 139 274.123 136.108C270.027 133.217 266.315 129.912 263.115 125.781C260.043 121.651 257.483 117.52 255.691 113.389C254.027 109.258 252.619 104.921 251.467 99.9642C250.443 95.2138 249.803 90.8766 249.419 86.9523C249.163 83.2347 249.035 79.3105 249.035 75.3862V69.6032C249.035 65.4724 249.163 61.5482 249.419 57.8305C249.803 54.1129 250.443 49.7756 251.467 45.0252C252.619 40.0683 254.027 35.731 255.691 31.6003C257.483 27.4695 259.915 23.5453 263.115 19.4145C266.187 15.4903 269.899 11.9792 274.123 9.2942C278.347 6.40267 283.595 4.3373 289.867 2.47846C296.139 0.826152 303.051 0 310.731 0H525.131C532.683 0 539.595 0.826152 545.867 2.47846C552.011 4.3373 557.259 6.40267 561.483 9.2942C565.579 11.9792 569.291 15.4903 572.491 19.4145C575.563 23.5453 577.995 27.4695 579.787 31.6003C581.579 35.731 582.987 40.0683 584.139 44.8187C585.163 49.569 585.931 53.9063 586.187 57.624ZM557.899 73.5274V71.0489C557.899 67.3313 557.643 64.0267 557.131 60.9286C556.619 57.8305 555.467 54.5259 553.931 51.0148C552.395 47.7102 550.347 44.8187 547.787 42.3402C545.355 40.0683 541.899 38.0029 537.547 36.3506C533.707 34.9049 529.227 34.2852 524.107 34.0787C523.595 34.0787 313.675 34.0787 313.163 34.0787C289.483 34.0787 277.707 46.2644 277.707 71.0489V73.3209C277.707 77.8647 278.219 81.9954 279.243 86.1262C280.139 90.0504 281.803 94.1812 284.235 98.3119C286.539 102.236 290.251 105.541 295.115 107.813C300.107 110.291 306.123 111.53 313.163 111.53C313.675 111.53 523.595 111.53 524.107 111.53C530.379 111.324 535.883 110.085 540.363 108.019C545.227 105.541 548.939 102.443 551.371 98.5184C553.803 94.5942 555.467 90.4635 556.491 86.5393C557.515 82.4085 557.899 78.0712 557.899 73.5274Z" fill="#1C1C1B"/>
<path d="M234.597 85.5064C237.669 90.8764 239.205 97.8987 239.205 106.573V145.609H211.429V120.205C211.429 111.53 210.021 105.127 207.205 101.203C204.389 97.2791 199.653 95.2137 192.869 95.2137H156.773V145.609H129.125V3.51099H200.421C226.021 3.51099 238.821 15.9032 238.821 40.4812V42.7531C238.821 57.8304 233.317 68.1573 222.437 73.9403C227.429 76.2122 231.525 79.9299 234.597 85.5064ZM209.893 49.7754V49.5689C209.893 45.4381 208.997 42.1335 207.205 39.6551C205.413 37.1766 202.597 35.7309 198.757 35.7309H156.773V63.82H198.757C202.597 63.82 205.413 62.3742 207.205 59.8958C208.997 57.4173 209.893 53.9062 209.893 49.7754Z" fill="#1C1C1B"/>
<path d="M73.216 97.6923H30.464V145.816H0V1.23926H73.216C103.552 1.23926 118.656 16.9361 118.656 48.3298V50.1887C118.656 81.7889 103.552 97.6923 73.216 97.6923ZM30.464 34.0787V65.2659H72.704C82.048 65.2659 86.784 60.1025 86.784 49.9821V49.3625C86.784 39.2422 82.048 34.0787 72.704 34.0787H30.464Z" fill="#1C1C1B"/>
</svg>
