<?xml version="1.0" encoding="UTF-8"?>
<svg id="Layer_1" xmlns="http://www.w3.org/2000/svg" version="1.1" viewBox="0 0 455.5 66.1">
  <!-- Generator: Adobe Illustrator 29.0.1, SVG Export Plug-In . SVG Version: 2.1.0 Build 192)  -->
  <defs>
    <style>
      .st0 {
        fill: #fff;
      }

      .st1 {
        fill: none;
      }
    </style>
  </defs>
  <g>
    <path class="st0" d="M22.2,62.5h3c3.1,0,5.8-2.2,6.4-5.2l7.8-36.1,4,40.1c0,.7.6,1.2,1.3,1.2h7.5c2.4,0,4.6-1.3,5.8-3.4l20-36.5-8.2,38.3c-.2.8.5,1.6,1.3,1.6h13.5c3.1,0,5.8-2.2,6.4-5.2l11.1-51.8c.2-.8-.4-1.6-1.3-1.6h-18.2c-2.4,0-4.7,1.3-5.8,3.5l-15.9,29.6-2.8-31.9c0-.7-.6-1.2-1.3-1.2h-17c-3.1,0-5.8,2.2-6.5,5.2l-5.6,26.4"/>
    <line class="st1" x1="22.9" y1="59.3" x2="22.5" y2="61.1"/>
    <line class="st1" x1="23.5" y1="56.6" x2="23.1" y2="58.4"/>
    <line class="st1" x1="25.4" y1="47.7" x2="23.8" y2="55.2"/>
    <line class="st1" x1="26.5" y1="42.4" x2="25.7" y2="46.2"/>
    <line class="st1" x1="27.6" y1="37.4" x2="26.8" y2="41"/>
    <path class="st0" d="M157.2,3.8h-3.8c-2.3,0-4.5,1.2-5.7,3.2l-11.9,20-6-22.2c-.2-.6-.7-1-1.3-1h-12.6c-4.3,0-7.5,4.1-6.4,8.2l6.9,26.6-4.7,22.1c-.2.8.4,1.6,1.3,1.6h13.1c3.1,0,5.8-2.2,6.4-5.2l3.6-16.9,22.2-34.4c.6-.9,0-2-1.1-2h0Z"/>
    <path class="st0" d="M205.8,20.8h8.8c3,0,5.6-2,6.4-4.9l1.9-7.1c.1-.5,0-1.1-.5-1.4-1.6-1.1-3.7-2.1-6.4-3-3.1-1-6.8-1.5-11.1-1.5s-6.7.3-10.3,1.1c-3.6.7-7,1.9-10,3.6s-5.6,3.8-7.6,6.5c-2,2.7-3,6-3,9.9s.4,4.8,1.3,6.5,2,3.1,3.4,4.2c1.4,1.1,2.9,2,4.5,2.6,1.6.6,3.2,1.1,4.7,1.6,1.5.5,3,1,4.5,1.4s2.7,1,3.8,1.7c1.1.7,2,1.4,2.6,2.3.6.9,1,2.1,1,3.4s-.2,2-.5,3c-.3,1-.8,1.9-1.5,2.8s-1.4,1.5-2.4,2.1c-.9.5-2.1.8-3.3.8s-2-.2-2.8-.7c-.7-.4-1.3-1-1.7-1.7-.4-.7-.7-1.4-.9-2.2-.2-.8-.3-1.6-.3-2.3s0-1.3,0-2.3c0-.3,0-.6,0-.8,0-.8-.6-1.4-1.3-1.4h-9.6c-3,0-5.7,2.1-6.4,5l-1.7,6.9c-.1.5,0,1,.4,1.3.9.8,2.1,1.5,3.7,2.2,1.6.7,3.8,1.3,6.6,1.9,2.8.6,6.4.9,10.9.9s8.4-.4,12.1-1.1,6.9-1.9,9.6-3.6c2.7-1.7,4.8-3.8,6.4-6.5,1.5-2.7,2.3-5.9,2.3-9.8s-.4-5-1.1-6.8-1.7-3.3-2.9-4.4-2.6-2-4.1-2.7c-1.5-.7-3.1-1.2-4.6-1.7-1.9-.5-3.6-.9-5.4-1.3-1.7-.4-3.3-.8-4.6-1.4-1.4-.5-2.4-1.3-3.3-2.1-.8-.9-1.2-2.1-1.2-3.7s.2-2.2.6-3.2c.4-1,.9-1.9,1.7-2.7s1.5-1.4,2.4-1.9c.9-.5,1.9-.7,3.1-.7s1.8.2,2.4.6c.6.4,1.1,1,1.4,1.7.3.7.5,1.5.6,2.4.1.9.2,1.8.2,2.7s0,1.7,0,2.4c0,.8.5,1.4,1.3,1.4h0Z"/>
    <path class="st0" d="M261.8,26.2l18.6-20.2c.8-.8.2-2.2-1-2.2h-4.5c-1.9,0-3.7.8-4.9,2.2l-20.8,23.4,5.1-23.9c.2-.8-.4-1.6-1.3-1.6h-13.1c-3.1,0-5.8,2.2-6.4,5.2l-11,51.8c-.2.8.4,1.6,1.3,1.6h13c3.1,0,5.8-2.2,6.4-5.2l4.3-20.5,7.8,24.8c.2.5.7.9,1.3.9h9.5c4.6,0,7.8-4.7,6.1-9l-10.6-27.3h0Z"/>
    <path class="st0" d="M309.2,3.8h-13.1c-3.1,0-5.8,2.2-6.5,5.2l-11,51.8c-.2.8.5,1.6,1.3,1.6h13c3.1,0,5.8-2.2,6.5-5.2l11.1-51.8c.2-.8-.5-1.6-1.3-1.6h0Z"/>
    <path class="st0" d="M347.2,54.7h-17.1l10.5-49.3c.2-.8-.5-1.6-1.3-1.6h-13.1c-3.1,0-5.8,2.2-6.5,5.2l-11,51.8c-.2.8.5,1.6,1.3,1.6h31.8c3.1,0,5.8-2.2,6.5-5.3l.2-.9c.2-.8-.5-1.6-1.3-1.6h0Z"/>
    <path class="st0" d="M391.7,54.7h-17.1l10.5-49.3c.2-.8-.5-1.6-1.3-1.6h-13.1c-3.1,0-5.8,2.2-6.5,5.2l-11,51.8c-.2.8.5,1.6,1.3,1.6h31.8c3.1,0,5.8-2.2,6.5-5.3l.2-.9c.2-.8-.5-1.6-1.3-1.6h0Z"/>
    <path class="st0" d="M451.9,7.4c-1.6-1.1-3.7-2.1-6.4-3-3.1-1-6.8-1.5-11.1-1.5s-6.7.3-10.3,1.1-7,1.9-10,3.6c-3,1.7-5.6,3.8-7.6,6.5s-3,6-3,9.9.5,4.8,1.3,6.5c.9,1.7,2,3.1,3.4,4.2s2.9,2,4.5,2.6,3.2,1.1,4.7,1.6c1.5.5,3,1,4.5,1.4s2.7,1,3.8,1.7c1.1.7,2,1.4,2.6,2.3.6.9,1,2.1,1,3.4s-.2,2-.5,3c-.3,1-.8,1.9-1.5,2.8s-1.5,1.5-2.4,2.1c-1,.5-2,.8-3.3.8s-2-.2-2.8-.7c-.7-.4-1.3-1-1.7-1.7s-.7-1.4-.9-2.2c-.2-.8-.3-1.6-.3-2.3s0-1.3,0-2.3c0-.3,0-.6,0-.8,0-.8-.5-1.4-1.3-1.4h-9.6c-3,0-5.7,2.1-6.4,5l-1.7,6.9c-.1.5,0,1,.4,1.3.9.8,2.1,1.5,3.7,2.2,1.6.7,3.8,1.3,6.6,1.9,2.8.6,6.4.9,10.9.9s8.4-.4,12.1-1.1,6.9-1.9,9.6-3.6,4.8-3.8,6.4-6.5c1.5-2.7,2.3-5.9,2.3-9.8s-.4-5-1.1-6.8-1.7-3.3-2.9-4.4-2.6-2-4.1-2.7c-1.5-.7-3.1-1.2-4.6-1.7-1.9-.5-3.6-.9-5.4-1.3-1.7-.4-3.3-.8-4.6-1.4-1.4-.5-2.5-1.3-3.3-2.1-.8-.9-1.2-2.1-1.2-3.7s.2-2.2.6-3.2,1-1.9,1.7-2.7,1.5-1.4,2.5-1.9c.9-.5,1.9-.7,3-.7s1.8.2,2.4.6c.6.4,1.1,1,1.4,1.7.3.7.5,1.5.6,2.4.1.9.2,1.8.2,2.7,0,1.6,0,2.9-.3,3.8h10.3c3,0,5.6-2,6.4-4.9l1.9-7.1c.1-.5,0-1.1-.5-1.4h0Z"/>
  </g>
  <g>
    <polygon class="st0" points="40.3 4.6 26.5 4.2 40.3 3.9 40.3 4.6 40.3 4.6"/>
    <polygon class="st0" points="41.3 6.2 31.6 5.9 41.3 5.4 41.3 6.2 41.3 6.2"/>
  </g>
  <g>
    <polygon class="st0" points="404.5 45.9 394.8 45.6 404.5 45.2 404.5 45.9 404.5 45.9"/>
    <polygon class="st0" points="405.7 47.1 385.9 46.8 405.7 46.4 405.7 47.1 405.7 47.1"/>
  </g>
  <g>
    <polygon class="st0" points="23.1 60.8 13.6 60.5 23.1 60.1 23.1 60.8 23.1 60.8"/>
    <polygon class="st0" points="23.1 62.5 3.2 62.1 23.1 61.7 23.1 62.5 23.1 62.5"/>
  </g>
  <polygon class="st0" points="401.7 53 392.1 52.7 401.7 52.2 401.7 53 401.7 53"/>
</svg>